<?xml version="1.0" standalone="no"?>
<!DOCTYPE svg PUBLIC "-//W3C//DTD SVG 20010904//EN"
 "http://www.w3.org/TR/2001/REC-SVG-20010904/DTD/svg10.dtd">
<svg version="1.0" xmlns="http://www.w3.org/2000/svg"
 width="450.000000pt" height="450.000000pt" viewBox="0 0 450.000000 450.000000"
 preserveAspectRatio="xMidYMid meet">
<metadata>
Created by potrace 1.11, written by Peter Selinger 2001-2013
</metadata>
<g transform="translate(0.000000,450.000000) scale(0.100000,-0.100000)"
fill="#000000" stroke="none">
<path d="M2085 4283 c-240 -21 -468 -77 -712 -174 l-33 -13 0 -874 0 -873 429
3 c416 3 430 4 457 24 15 11 37 33 48 48 21 27 21 36 24 933 2 666 -1 909 -9
919 -11 14 -97 17 -204 7z m-218 -509 c23 -9 54 -29 68 -45 l25 -31 0 -412 c0
-407 0 -412 -22 -456 -34 -65 -66 -84 -148 -88 -39 -2 -95 -1 -125 3 l-55 6 0
518 c0 285 3 521 7 524 11 12 206 -4 250 -19z"/>
<path d="M2521 4265 c-24 -7 -54 -24 -68 -37 -55 -50 -53 -23 -53 -908 0 -897
-2 -861 59 -913 54 -45 84 -48 396 -45 271 3 293 4 330 24 22 11 50 36 63 54
l22 33 0 784 c0 854 2 816 -56 862 -38 30 -224 87 -394 121 -192 38 -245 43
-299 25z m408 -441 l31 -26 0 -539 c0 -620 12 -559 -110 -559 -66 0 -74 2
-101 29 l-29 29 0 534 c0 402 3 537 12 546 7 7 42 12 89 12 69 0 81 -3 108
-26z"/>
<path d="M3410 4093 c0 -5 9 -14 20 -21 11 -7 20 -8 20 -2 0 5 -9 14 -20 20
-11 6 -20 7 -20 3z"/>
<path d="M1150 4008 c-19 -12 -72 -46 -117 -75 l-83 -54 0 -579 0 -578 -26
-31 c-32 -39 -91 -55 -167 -47 -68 7 -91 17 -115 53 -15 24 -18 68 -22 427 -6
469 -2 457 -97 327 -32 -45 -75 -109 -96 -143 l-37 -62 0 -406 c0 -444 -1
-433 60 -465 45 -23 657 -22 706 1 67 32 64 -10 62 861 -3 872 2 814 -68 771z"/>
<path d="M3380 3175 l0 -815 100 0 100 0 0 488 c0 477 1 489 20 507 17 15 24
16 45 7 l25 -11 2 -493 3 -493 200 0 200 0 3 488 2 488 -50 74 c-58 83 -84
110 -99 100 -8 -4 -11 -153 -11 -469 0 -346 -3 -465 -12 -474 -17 -17 -44 -15
-62 4 -14 14 -16 77 -16 548 l0 532 -57 55 c-115 111 -343 279 -379 279 -12 0
-14 -126 -14 -815z"/>
<path d="M2912 2234 c-39 -27 -52 -67 -52 -159 0 -155 31 -185 187 -185 108 1
133 9 164 56 25 38 28 199 4 244 -27 52 -49 60 -170 60 -84 0 -116 -4 -133
-16z"/>
<path d="M397 2213 c-4 -3 -7 -237 -7 -519 l0 -513 50 -66 c89 -118 105 -135
122 -135 16 0 18 21 20 263 l3 262 60 3 c74 4 124 -10 156 -44 l24 -26 5 -365
5 -365 83 -61 c57 -41 86 -57 93 -50 8 8 15 624 10 937 -1 31 -8 45 -37 73
l-36 34 36 35 c41 39 37 14 37 302 0 249 10 242 -358 242 -143 0 -263 -3 -266
-7z m357 -217 c78 -33 98 -106 43 -161 -36 -36 -86 -49 -167 -43 l-45 3 -3 94
c-1 52 -1 100 2 108 7 18 126 17 170 -1z"/>
<path d="M1243 2200 c-25 -11 -51 -33 -63 -52 -20 -32 -20 -46 -17 -863 l2
-829 100 -43 100 -42 3 519 2 520 130 0 130 0 0 -563 0 -564 90 -21 c49 -12
97 -22 105 -22 13 0 15 106 15 918 0 573 -4 930 -10 953 -12 42 -52 82 -99 98
-21 7 -112 11 -240 11 -181 0 -211 -3 -248 -20z m362 -255 c24 -23 25 -30 25
-145 l0 -120 -130 0 -130 0 0 129 c0 160 1 161 128 161 75 0 85 -2 107 -25z"/>
<path d="M1970 1211 l0 -1009 78 -9 c126 -13 511 -10 555 6 54 18 105 66 117
109 14 53 14 1734 -1 1787 -14 50 -64 100 -114 114 -25 7 -152 11 -337 11
l-298 0 0 -1009z m479 625 c21 -19 21 -22 21 -633 0 -728 16 -655 -143 -651
l-102 3 -3 640 c-1 352 0 646 3 653 4 11 28 13 104 10 80 -2 103 -7 120 -22z"/>
<path d="M3405 2168 c-11 -6 -23 -16 -27 -22 -4 -6 -8 -340 -8 -742 0 -684 1
-732 18 -747 49 -44 86 -33 209 65 180 142 315 282 436 450 l57 80 0 443 0
444 -26 20 c-26 20 -38 21 -333 21 -209 -1 -312 -4 -326 -12z m433 -114 l22
-15 0 -469 0 -469 -22 -15 c-16 -12 -47 -16 -115 -16 -146 0 -133 -47 -133
500 0 547 -13 500 133 500 68 0 99 -4 115 -16z"/>
<path d="M2882 1657 l-22 -23 0 -642 c0 -629 0 -642 20 -662 11 -11 27 -20 35
-20 37 0 206 107 283 179 l32 30 0 560 c0 548 0 561 -20 581 -18 18 -33 20
-163 20 -137 0 -144 -1 -165 -23z"/>
</g>
</svg>
